<svg width="93" height="89" viewBox="0 0 93 89" fill="none" xmlns="http://www.w3.org/2000/svg">
<path d="M19.487 16.0239C20.7196 16.2587 22.1869 16.3761 23.8891 16.3761C24.1826 16.3761 24.5348 16.3761 24.8283 16.3761C41.7913 15.9065 63.2152 5.04782 59.8695 1.70217C59.2826 1.11522 58.3434 1.58478 55.8195 2.87609C46.6043 7.63043 32.1065 11.6217 23.8891 10.213C23.4783 10.0956 22.95 9.97825 22.5978 9.86086C21.9522 9.62608 21.3065 9.27391 20.8956 8.74565C20.5435 8.33478 20.4261 7.74782 20.7196 7.10217C21.3652 5.51739 24.1826 3.28695 31.5782 0C31.4022 0.0586956 31.1087 0.176087 30.9326 0.234782L30.5804 0.352174C30.1696 0.528261 29.9935 0.586956 29.5826 0.763043C29.1717 0.93913 28.9956 0.997825 28.5848 1.17391C28.1152 1.35 27.9391 1.46739 27.4696 1.64348C27 1.81956 26.8239 1.93696 26.3543 2.17174C26.0022 2.34782 25.5326 2.58261 25.1217 2.81739C24.8283 2.99348 24.5348 3.11087 24.2413 3.28695C24.1826 3.34565 24.0652 3.40435 23.9478 3.46304C22.6565 4.16739 19.3109 6.10434 16.963 8.51086C16.3761 9.09782 15.9652 9.68478 15.613 10.213C15.0848 11.0935 14.7913 11.9152 14.85 12.6196C14.85 14.263 16.4935 15.4956 19.487 16.0239Z" fill="url(#paint0_linear_639_443)"/>
<path d="M9.33258 29.9934C11.4456 30.7565 14.0282 31.2261 16.8456 31.3434C19.7217 31.5195 22.8913 31.3434 26.2369 30.9913C48.3652 28.5261 77.6543 15.7304 74.8369 9.2152C74.426 8.33476 73.6043 8.80433 71.6673 9.91955C55.6434 19.1935 31.4021 25.2391 16.5521 23.7717C15.8478 23.6543 14.85 23.5369 13.7934 23.2435C12.5021 22.95 11.1521 22.4217 10.1543 21.6587C8.98041 20.7782 8.27606 19.4282 8.86302 17.55C9.1565 16.7282 9.62606 15.7304 10.5065 14.6152L10.2717 14.85C9.1565 16.2587 8.56954 17.0217 7.92389 18.0195C7.27824 18.9587 6.74998 19.8391 5.86954 21.3652C5.39998 22.2456 4.40215 24.1826 4.93041 26.1782C5.16519 27.0587 5.75215 27.9391 6.86737 28.7608C7.51302 29.2304 8.33476 29.6413 9.33258 29.9934Z" fill="url(#paint1_linear_639_443)"/>
<path d="M2.93479 45.0195C3.81522 45.6065 4.81305 46.1347 5.86957 46.5456C9.56739 48.013 14.4391 48.5999 19.8978 48.4825C23.5956 48.4239 27.5869 48.013 31.7543 47.3673C57.1108 43.376 87.3978 29.8173 86.2826 21.5413C86.2239 21.3065 85.9891 21.0717 85.813 20.8369C85.226 20.8956 85.1673 20.9543 83.2891 22.0695C66.9717 32.2239 34.9826 41.6739 13.0891 39.8543C12.9717 39.8543 12.7957 39.8543 12.6783 39.7956C10.213 39.4434 8.1587 39.0326 6.51522 38.4456C3.93261 37.5065 2.40653 36.2739 1.81957 34.6304C1.4674 33.6326 1.4087 32.5173 1.70218 31.226C1.52609 31.9304 1.29131 32.7521 1.11522 33.6326C0.939136 34.4543 0.704354 35.3347 0.586962 36.0391L0.117398 39.1499C0.0587019 40.2652 6.32554e-06 42.2021 1.76087 44.0217C2.05435 44.3152 2.46522 44.6673 2.93479 45.0195Z" fill="url(#paint2_linear_639_443)"/>
<path d="M92.2695 36.8608C64.976 51.1826 40.0304 57.9913 17.9609 57.2282C16.2587 57.1695 14.5565 57.0521 12.913 56.9347C11.7391 56.7587 10.6826 56.5826 9.62608 56.4065C6.28043 55.7608 3.63913 54.763 1.93696 53.1782C0.93913 52.2391 0.293478 51.0652 0 49.5978L0.234782 51.5934C0.410869 52.5326 0.645652 53.7065 0.880434 54.8217C1.11522 55.8195 1.35 56.8174 1.58478 57.6978V57.7565C1.58478 57.8152 1.58478 57.8152 1.64348 57.8739C1.87826 58.5195 2.23043 59.3413 2.6413 59.8695C3.40435 60.8673 4.34348 61.7478 5.45869 62.5108C6.98478 63.5086 8.86304 64.2717 11.0348 64.8586C14.9674 65.8565 19.7217 66.0913 25.0043 65.7978C28.8195 65.563 32.8695 65.0347 37.0369 64.3304C62.4521 59.7521 91.976 46.3695 92.7978 37.8C92.7978 37.6239 92.7978 37.4478 92.7978 37.2717C92.6217 37.0369 92.3869 36.9195 92.2695 36.8608Z" fill="url(#paint3_linear_639_443)"/>
<path d="M57.6978 68.3217C54.9978 69.0261 52.2391 69.6717 49.5391 70.2C41.3804 71.9022 33.2218 72.9 25.8848 73.0174C23.0674 73.0761 20.3674 72.9587 17.7848 72.7826C17.6674 72.7826 17.55 72.7239 17.4326 72.7239C13.3826 72.1369 10.8 71.4326 9.03916 70.4935C7.51308 69.6717 6.51525 68.6739 5.69351 67.4413L6.57395 68.9674C7.10221 69.7891 7.74786 70.7869 8.45221 71.7261C9.09786 72.6652 9.8022 73.663 10.4479 74.4261C11.7392 75.7174 13.4413 76.7152 15.4957 77.4782C17.3739 78.1239 19.5457 78.5935 21.9522 78.8282C25.7087 79.2391 29.9935 79.1217 34.6304 78.6522C38.0935 78.3 41.6739 77.7717 45.3717 77.0087C66.9717 72.7239 90.3913 62.4522 92.9739 54.2348C93.0326 54 92.9739 53.7065 92.9739 53.4717C84.1695 59.5174 71.2565 64.7413 57.6978 68.3217Z" fill="url(#paint4_linear_639_443)"/>
<path d="M60.5152 80.1781C58.7543 80.6477 56.9934 81.1173 55.1739 81.5281C49.4804 82.8781 43.5521 83.876 37.7413 84.2868C35.1 84.4629 32.4587 84.5803 29.8761 84.4629C28.7021 84.4042 27.5869 84.3455 26.4717 84.2868C24.5348 84.052 23.0674 83.7586 21.8935 83.4651C20.0739 82.9955 18.8413 82.3499 17.4326 81.4107C18.1956 81.9977 19.1348 82.6433 20.0739 83.289C21.013 83.9346 21.9521 84.5803 22.7739 85.1086L24.6521 86.1651C26.1782 86.9281 28.1152 87.4564 30.3456 87.7499C32.3413 88.0433 34.513 88.102 36.8608 88.0433C39.9717 87.9846 43.376 87.6325 46.8978 87.1042C49.363 86.6933 51.8869 86.2238 54.4108 85.6368C68.3804 82.4086 82.2912 76.3629 86.576 69.9651C86.6347 69.9064 86.6934 69.789 86.7521 69.7303L87.5738 68.3803C87.5738 68.3803 87.5152 68.439 87.5152 68.4977C85.1086 71.1977 74.0738 76.4216 60.5152 80.1781Z" fill="url(#paint5_linear_639_443)"/>
<defs>
<linearGradient id="paint0_linear_639_443" x1="67.9854" y1="-22.013" x2="-11.6645" y2="53.7839" gradientUnits="userSpaceOnUse">
<stop stop-color="#66C2FF"/>
<stop offset="1" stop-color="#1199FA"/>
</linearGradient>
<linearGradient id="paint1_linear_639_443" x1="73.6053" y1="-16.1079" x2="-6.04436" y2="59.6888" gradientUnits="userSpaceOnUse">
<stop stop-color="#66C2FF"/>
<stop offset="1" stop-color="#1199FA"/>
</linearGradient>
<linearGradient id="paint2_linear_639_443" x1="81.4681" y1="-7.84605" x2="1.81851" y2="67.9506" gradientUnits="userSpaceOnUse">
<stop stop-color="#66C2FF"/>
<stop offset="1" stop-color="#1199FA"/>
</linearGradient>
<linearGradient id="paint3_linear_639_443" x1="90.9972" y1="2.16606" x2="11.3474" y2="77.9628" gradientUnits="userSpaceOnUse">
<stop stop-color="#66C2FF"/>
<stop offset="1" stop-color="#1199FA"/>
</linearGradient>
<linearGradient id="paint4_linear_639_443" x1="100.821" y1="12.4886" x2="21.1712" y2="88.2857" gradientUnits="userSpaceOnUse">
<stop stop-color="#66C2FF"/>
<stop offset="1" stop-color="#1199FA"/>
</linearGradient>
<linearGradient id="paint5_linear_639_443" x1="109.312" y1="21.4103" x2="29.6622" y2="97.2072" gradientUnits="userSpaceOnUse">
<stop stop-color="#66C2FF"/>
<stop offset="1" stop-color="#1199FA"/>
</linearGradient>
</defs>
</svg>
