<svg xmlns="http://www.w3.org/2000/svg" xmlns:xlink="http://www.w3.org/1999/xlink" viewBox="0 0 744.05 88.06"><defs><style>.cls-1{fill:url(#linear-gradient);}.cls-2{fill:url(#linear-gradient-2);}.cls-3{fill:url(#linear-gradient-3);}.cls-4{fill:url(#linear-gradient-4);}.cls-5{fill:url(#linear-gradient-5);}.cls-6{fill:url(#linear-gradient-6);}.cls-7{fill:url(#linear-gradient-7);}.cls-8{fill:url(#linear-gradient-8);}.cls-9{fill:url(#linear-gradient-9);}.cls-10{fill:url(#linear-gradient-10);}.cls-11{fill:url(#linear-gradient-11);}.cls-12{fill:url(#linear-gradient-12);}.cls-13{fill:url(#linear-gradient-13);}.cls-14{fill:url(#linear-gradient-14);}.cls-15{fill:url(#linear-gradient-15);}.cls-16{fill:#fff;}</style><linearGradient id="linear-gradient" x1="67.99" y1="96.11" x2="-11.66" y2="20.31" gradientTransform="matrix(1, 0, 0, -1, 0, 74.1)" gradientUnits="userSpaceOnUse"><stop offset="0" stop-color="#66c2ff"/><stop offset="1" stop-color="#1199fa"/></linearGradient><linearGradient id="linear-gradient-2" x1="73.59" y1="90.22" x2="-6.06" y2="14.43" xlink:href="#linear-gradient"/><linearGradient id="linear-gradient-3" x1="81.45" y1="81.96" x2="1.8" y2="6.17" xlink:href="#linear-gradient"/><linearGradient id="linear-gradient-4" x1="91.07" y1="71.86" x2="11.42" y2="-3.94" xlink:href="#linear-gradient"/><linearGradient id="linear-gradient-5" x1="100.86" y1="61.57" x2="21.21" y2="-14.23" xlink:href="#linear-gradient"/><linearGradient id="linear-gradient-6" x1="109.29" y1="52.71" x2="29.64" y2="-23.08" xlink:href="#linear-gradient"/><linearGradient id="linear-gradient-7" x1="107.76" y1="26.45" x2="312.76" y2="82.45" gradientTransform="matrix(1, 0, 0, 1, 0, 0)" xlink:href="#linear-gradient"/><linearGradient id="linear-gradient-8" x1="108.64" y1="23.21" x2="313.64" y2="79.21" gradientTransform="matrix(1, 0, 0, 1, 0, 0)" xlink:href="#linear-gradient"/><linearGradient id="linear-gradient-9" x1="112.24" y1="10.04" x2="317.24" y2="66.04" gradientTransform="matrix(1, 0, 0, 1, 0, 0)" xlink:href="#linear-gradient"/><linearGradient id="linear-gradient-10" x1="112.97" y1="7.37" x2="317.97" y2="63.37" gradientTransform="matrix(1, 0, 0, 1, 0, 0)" xlink:href="#linear-gradient"/><linearGradient id="linear-gradient-11" x1="114.9" y1="0.3" x2="319.9" y2="56.3" gradientTransform="matrix(1, 0, 0, 1, 0, 0)" xlink:href="#linear-gradient"/><linearGradient id="linear-gradient-12" x1="117.13" y1="-7.85" x2="322.13" y2="48.15" gradientTransform="matrix(1, 0, 0, 1, 0, 0)" xlink:href="#linear-gradient"/><linearGradient id="linear-gradient-13" x1="118.75" y1="-13.79" x2="323.75" y2="42.21" gradientTransform="matrix(1, 0, 0, 1, 0, 0)" xlink:href="#linear-gradient"/><linearGradient id="linear-gradient-14" x1="120.91" y1="-21.7" x2="325.91" y2="34.3" gradientTransform="matrix(1, 0, 0, 1, 0, 0)" xlink:href="#linear-gradient"/><linearGradient id="linear-gradient-15" x1="124.63" y1="-35.32" x2="329.63" y2="20.68" gradientTransform="matrix(1, 0, 0, 1, 0, 0)" xlink:href="#linear-gradient"/></defs><g id="Layer_2" data-name="Layer 2"><g id="Layer_1-2" data-name="Layer 1"><path class="cls-1" d="M19.49,16a23.33,23.33,0,0,0,4.4.36h.94c17-.47,38.39-11.33,35-14.68-.59-.58-1.53-.12-4,1.18-9.22,4.75-23.71,8.74-31.93,7.33-.41-.11-.94-.23-1.29-.35a3.74,3.74,0,0,1-1.7-1.11,1.49,1.49,0,0,1-.18-1.65c.65-1.58,3.46-3.81,10.86-7.1-.18.06-.47.18-.65.23l-.35.12c-.41.18-.59.24-1,.41s-.58.24-1,.41-.64.3-1.11.47a11.33,11.33,0,0,0-1.12.53c-.35.18-.82.41-1.23.65s-.59.29-.88.47a1.23,1.23,0,0,1-.29.17,32,32,0,0,0-7,5.05,11.62,11.62,0,0,0-1.35,1.7,4.24,4.24,0,0,0-.76,2.41C14.85,14.26,16.49,15.5,19.49,16Z"/><path class="cls-2" d="M9.33,30a25.23,25.23,0,0,0,7.52,1.35A57.52,57.52,0,0,0,26.24,31c22.13-2.46,51.41-15.26,48.6-21.77-.41-.89-1.24-.42-3.17.7-16,9.27-40.27,15.32-55.12,13.85a23.94,23.94,0,0,1-2.76-.53,9.7,9.7,0,0,1-3.64-1.58,3.5,3.5,0,0,1-1.29-4.11,10.3,10.3,0,0,1,1.65-2.93l-.24.23C9.16,16.26,8.57,17,7.92,18s-1.17,1.82-2,3.35a6.8,6.8,0,0,0-.94,4.81,4.78,4.78,0,0,0,1.94,2.58A9.4,9.4,0,0,0,9.33,30Z"/><path class="cls-3" d="M2.93,45a16,16,0,0,0,2.94,1.53c3.7,1.46,8.57,2.05,14,1.93a88.34,88.34,0,0,0,11.85-1.11c25.36-4,55.65-17.55,54.53-25.83a2.39,2.39,0,0,0-.47-.7c-.58.06-.64.11-2.52,1.23C67,32.22,35,41.67,13.09,39.85a1.15,1.15,0,0,1-.41-.05,33.56,33.56,0,0,1-6.16-1.35c-2.59-.94-4.11-2.18-4.7-3.82a6,6,0,0,1-.12-3.4c-.17.7-.41,1.52-.58,2.4S.7,35.33.59,36L.12,39.15A6,6,0,0,0,1.76,44,10.85,10.85,0,0,0,2.93,45Z"/><path class="cls-4" d="M92.27,36.86C65,51.18,40,58,18,57.23c-1.7-.06-3.4-.18-5.05-.3-1.17-.17-2.23-.35-3.28-.52-3.35-.65-6-1.65-7.69-3.23A6.46,6.46,0,0,1,0,49.6l.23,2c.18.94.42,2.12.65,3.23s.47,2,.7,2.88v.06c0,.06,0,.06.06.11a8.14,8.14,0,0,0,1,2,11.88,11.88,0,0,0,2.82,2.64A19.39,19.39,0,0,0,11,64.86a47.5,47.5,0,0,0,14,.94,118.41,118.41,0,0,0,12-1.47C62.45,59.75,92,46.37,92.8,37.8v-.53A1.51,1.51,0,0,0,92.27,36.86Z"/><path class="cls-5" d="M57.7,68.32c-2.7.71-5.46,1.35-8.16,1.88A128.73,128.73,0,0,1,25.88,73c-2.81.06-5.51-.06-8.1-.24-.11,0-.23-.06-.35-.06-4-.58-6.63-1.29-8.39-2.23a9,9,0,0,1-3.35-3L6.57,69c.53.82,1.18,1.82,1.88,2.76s1.35,1.93,2,2.7a13.75,13.75,0,0,0,5.05,3A29,29,0,0,0,22,78.83a61.79,61.79,0,0,0,12.68-.18A106.63,106.63,0,0,0,45.37,77C67,72.72,90.39,62.45,93,54.23a3.22,3.22,0,0,0,0-.76C84.17,59.52,71.26,64.74,57.7,68.32Z"/><path class="cls-6" d="M60.52,80.18c-1.77.47-3.53.94-5.35,1.35a109.77,109.77,0,0,1-17.43,2.76,71.43,71.43,0,0,1-7.86.17l-3.41-.17a38.88,38.88,0,0,1-4.58-.82,13.54,13.54,0,0,1-4.46-2.06c.77.59,1.7,1.23,2.64,1.88s1.88,1.29,2.7,1.82l1.88,1.06a18.26,18.26,0,0,0,5.7,1.58,38.72,38.72,0,0,0,6.51.29,78.87,78.87,0,0,0,10-.94c2.46-.41,5-.88,7.51-1.46,14-3.23,27.88-9.28,32.17-15.67,0-.06.11-.18.17-.24l.82-1.35a.22.22,0,0,0,0,.12C85.11,71.2,74.07,76.42,60.52,80.18Z"/><path class="cls-7" d="M160,42.48c0,1.69,0,3-.14,4.79-.67,7.76-6,14.18-18.15,14.18S124.2,55,123.59,47.27c-.13-1.75-.13-3.1-.13-4.79V13.93h7.35V42.62a31.08,31.08,0,0,0,.14,3.77c.47,5.61,4.05,9.39,10.73,9.39S152,52,152.48,46.39a33.46,33.46,0,0,0,.13-3.77V13.93H160Z"/><path class="cls-8" d="M199,40.32V60.5h-7.43V41.13c0-1.69,0-3.24-.13-5.06-.34-4-2.5-6.89-7.56-6.89s-9.31,4-9.31,15.26V60.5h-7.43V24.66h7.43V30.6L177,26.49c2.83-2.16,5.46-2.77,9-2.77,7.69,0,12.08,4,12.76,10.26C198.91,35.8,199,37.42,199,40.32Z"/><path class="cls-9" d="M214.43,16.43a4.24,4.24,0,0,1-4.38,4.32,4.18,4.18,0,0,1-4.32-4.32,4.17,4.17,0,0,1,4.32-4.25A4.22,4.22,0,0,1,214.43,16.43ZM206.34,60.5V24.66h7.42V60.5Z"/><path class="cls-10" d="M239.34,60.5H230.7L217,24.66h8.17L235.22,55l9.92-30.37H253Z"/><path class="cls-11" d="M286,44.64H260.33c.61,8.57,4.52,11.41,9.38,11.41a8.17,8.17,0,0,0,8.44-7.16h7.49c-1.55,8.51-8.37,12.56-16.2,12.56-9.58,0-16.8-6.08-16.8-18.77,0-11.34,7.22-19,17.54-19s16,7.83,16,18A25.81,25.81,0,0,1,286,44.64Zm-25.64-5.2h18.15c-.54-6.61-3.44-10.32-8.64-10.32S261.21,32.56,260.4,39.44Z"/><path class="cls-12" d="M310.07,24.19V30C303.25,29.52,299,33,299,41.87V60.5h-7.42V24.66H299v6.08l3-4.93a9.32,9.32,0,0,1,5.53-2A6.9,6.9,0,0,1,310.07,24.19Z"/><path class="cls-13" d="M338.89,34.92h-7.56c-.74-3.78-3-6-6.61-6s-5.2,1.95-5.2,4.65c0,3.24,2.63,4.59,8,6,7.83,2,11.95,5.13,11.95,11.47,0,7-6.14,10.4-14,10.4s-13.84-3.58-14.85-11.68h7.49c.88,4.59,3.92,6.41,7.63,6.41,3.44,0,6.21-1.48,6.21-4.59s-2.43-4.79-8.51-6.41c-6.54-1.69-11.4-4.45-11.4-10.73,0-6.68,5.26-10.73,13.23-10.73C333.49,23.72,338.08,28.38,338.89,34.92Z"/><path class="cls-14" d="M364.13,55.3l-1.82,3.85a15.39,15.39,0,0,1-8.91,2.3c-6.34,0-11.54-3.65-11.54-10.33,0-8,6.34-12.28,19.91-12.28h2.3V38a36.68,36.68,0,0,0-.14-3.92c-.2-2.9-2-4.92-6.28-4.92s-6.54,2.43-6.95,6.88h-7.42c.47-7.83,6.34-12.28,14.51-12.28,9.24,0,12.89,3.91,13.5,10,.13,1.48.2,3.37.2,5.06V51.39a61.91,61.91,0,0,0,.67,9.11h-7.35Zm-.06-8.23V43.76c-8.71-.67-14.38,1.29-14.38,6.75,0,3.78,2.5,5.54,6.41,5.54C360.76,56.05,364.07,52.87,364.07,47.07Z"/><path class="cls-15" d="M386.41,49.57c0,1.21,0,2.29.06,3.37.14,2,1.08,2.7,4.26,2.43v5.2a37.25,37.25,0,0,1-4.86.33c-3.92,0-6.55-1.41-6.82-6-.07-1.35-.07-3-.07-5.13V10.9h7.43Z"/><path class="cls-16" d="M447.82,28.92l.07.67h-7.36l-.13-.67c-1.28-6.28-5.13-10.26-12.15-10.26-8.64,0-14.11,7.42-14.11,18.42,0,11.54,5.54,18.7,13.77,18.7,7,0,10.87-4.12,12.15-10.4l.14-.67h7.35l-.07.67c-.94,9.11-7.76,16.07-19.91,16.07-13.29,0-21.46-9.86-21.46-24,0-14.65,9.18-24.43,22.27-24.43C440.53,13,446.88,19.74,447.82,28.92Z"/><path class="cls-16" d="M487.17,42.55c0,10.46-6.14,18.9-18.15,18.9S450.86,53,450.86,42.55,456.93,23.72,469,23.72,487.17,32.09,487.17,42.55Zm-7.9,0c0-8.1-3.78-13.43-10.25-13.43s-10.33,5.33-10.33,13.43,3.78,13.5,10.33,13.5S479.27,50.65,479.27,42.55Z"/><path class="cls-16" d="M527.66,41.94c0,13.16-8.09,19.51-17.34,19.51-3,0-6.68-.82-8.5-2.23l-2.37-3.58V73.73H492V24.66h7.42v5.6l2.7-3.84c2-1.69,5.74-2.7,9.38-2.7C521.79,23.72,527.66,31.48,527.66,41.94Zm-7.82.68c0-7.77-3.58-13.5-10.06-13.5-5.53,0-10.33,3.51-10.33,13.09V44c0,8.78,5.27,12,10,12C515.38,56.05,519.84,51.52,519.84,42.62Z"/><path class="cls-16" d="M548.93,62.8c-3.31,8.5-7.16,11.87-13.64,11.87a18.44,18.44,0,0,1-3.51-.2V69c.88.07,1.62.07,2.37.07,3.37,0,5.67-1.42,7.29-5.6l.54-1.28L527.53,24.66h8.3L545.69,55l9.78-30.31h8Z"/><path class="cls-16" d="M599.81,19.8V60.5h-7.35V19.8H576.19V13.93h39.89V19.8Z"/><path class="cls-16" d="M633.7,24.19V30c-6.82-.47-11.07,3-11.07,11.88V60.5H615.2V24.66h7.43v6.08l3-4.93a9.35,9.35,0,0,1,5.54-2A7,7,0,0,1,633.7,24.19Z"/><path class="cls-16" d="M657.32,55.3l-1.82,3.85a15.41,15.41,0,0,1-8.91,2.3c-6.35,0-11.54-3.65-11.54-10.33,0-8,6.34-12.28,19.91-12.28h2.29V38c0-1.35,0-2.57-.13-3.92-.21-2.9-2-4.92-6.28-4.92s-6.55,2.43-7,6.88h-7.43c.48-7.83,6.35-12.28,14.51-12.28,9.25,0,12.89,3.91,13.5,10,.14,1.48.2,3.37.2,5.06V51.39a62.11,62.11,0,0,0,.68,9.11H658Zm-.07-8.23V43.76c-8.71-.67-14.37,1.29-14.37,6.75,0,3.78,2.49,5.54,6.41,5.54C653.94,56.05,657.25,52.87,657.25,47.07Z"/><path class="cls-16" d="M705.37,60.5H698V54.83l-2.7,3.92c-2,1.62-5.74,2.7-9.38,2.7-10.26,0-16.13-7.77-16.13-18.29,0-13.1,8.1-19.44,17.34-19.44,3,0,6.68.81,8.51,2.23L698,29.52V10.9h7.42ZM698,43V41.06c0-8.7-5.27-11.94-10.06-11.94-5.87,0-10.32,4.52-10.32,13.43,0,7.76,3.57,13.5,10,13.5C693.16,56.05,698,52.54,698,43Z"/><path class="cls-16" d="M743.91,44.64H718.2c.61,8.57,4.52,11.41,9.38,11.41A8.17,8.17,0,0,0,736,48.89h7.49c-1.56,8.51-8.37,12.56-16.2,12.56-9.58,0-16.81-6.08-16.81-18.77,0-11.34,7.23-19,17.55-19s16,7.83,16,18A25.81,25.81,0,0,1,743.91,44.64Zm-25.64-5.2h18.15c-.54-6.61-3.44-10.32-8.64-10.32S719.07,32.56,718.27,39.44Z"/></g></g></svg>